<svg width="66" height="66" viewBox="0 0 66 66" fill="none" xmlns="http://www.w3.org/2000/svg">
<path d="M2.75049 11.8248L23.9255 2.74976L42.0755 11.8248L61.1421 3.65423C61.3722 3.55557 61.6233 3.51559 61.8727 3.5379C62.1221 3.5602 62.3621 3.64409 62.5711 3.78202C62.7801 3.91996 62.9516 4.10763 63.0702 4.32819C63.1888 4.54876 63.2507 4.79531 63.2505 5.04573V54.1748L42.0755 63.2498L23.9255 54.1748L4.85891 62.3453C4.62875 62.4439 4.37769 62.4839 4.12827 62.4616C3.87885 62.4393 3.63887 62.3554 3.42986 62.2175C3.22086 62.0795 3.04938 61.8919 2.9308 61.6713C2.81222 61.4508 2.75027 61.2042 2.75049 60.9538V11.8248ZM42.0755 56.4859V18.4072L41.8789 18.4919L23.9255 9.51366V47.5924L24.1221 47.5077L42.0755 56.4859Z" fill="white"/>
</svg>
