<svg xmlns="http://www.w3.org/2000/svg" width="100" height="100" viewBox="0 0 100 100" version="1.1"><path d="M 30 10.480 C 30 10.744, 31.205 13.894, 32.677 17.480 L 35.355 24 50 24 L 64.645 24 67.323 17.480 C 68.795 13.894, 70 10.744, 70 10.480 C 70 10.216, 61 10, 50 10 C 39 10, 30 10.216, 30 10.480 M 17.017 22.483 C 12.942 26.585, 9.809 30.098, 10.054 30.290 C 10.299 30.481, 13.395 31.867, 16.934 33.370 L 23.368 36.102 27.121 32.301 L 30.874 28.500 28.416 22.529 C 27.065 19.245, 25.614 16.214, 25.192 15.792 C 24.770 15.370, 21.091 18.381, 17.017 22.483 M 74.145 16.730 C 73.562 17.818, 72.197 20.962, 71.111 23.718 L 69.137 28.727 72.879 32.382 L 76.621 36.036 83.303 33.268 C 86.978 31.746, 89.988 30.264, 89.992 29.975 C 89.997 29.686, 86.671 26.143, 82.602 22.101 C 75.780 15.325, 75.121 14.906, 74.145 16.730 M 33.703 33.792 L 30 37.584 30 50.089 L 30 62.594 33.792 66.297 L 37.584 70 50.089 70 L 62.594 70 66.297 66.208 L 70 62.416 70 49.911 L 70 37.406 66.208 33.703 L 62.416 30 49.911 30 L 37.406 30 33.703 33.792 M 10 50 C 10 60.170, 10.288 63.099, 11.250 62.717 C 11.938 62.444, 15.087 61.158, 18.249 59.860 L 23.997 57.500 23.997 50 L 23.997 42.500 18.249 40.140 C 15.087 38.842, 11.938 37.556, 11.250 37.283 C 10.288 36.901, 10 39.830, 10 50 M 82.255 39.832 L 76.011 42.500 76.005 50.005 L 76 57.510 82.246 60.005 C 85.681 61.377, 88.831 62.650, 89.246 62.833 C 89.661 63.017, 90 57.279, 90 50.083 C 90 42.888, 89.662 37.037, 89.250 37.082 C 88.838 37.128, 85.690 38.365, 82.255 39.832 M 16.500 66.744 C 13.200 68.181, 10.299 69.515, 10.054 69.708 C 9.809 69.901, 12.942 73.415, 17.017 77.517 C 21.091 81.619, 24.770 84.630, 25.192 84.208 C 25.614 83.786, 27.060 80.755, 28.407 77.471 L 30.855 71.500 27.224 67.750 C 25.228 65.688, 23.348 64.030, 23.047 64.066 C 22.746 64.102, 19.800 65.307, 16.500 66.744 M 72.776 67.750 L 69.145 71.500 71.593 77.471 C 72.940 80.755, 74.386 83.786, 74.808 84.208 C 75.230 84.630, 78.909 81.619, 82.983 77.517 C 87.058 73.415, 90.191 69.902, 89.946 69.710 C 89.470 69.339, 77.027 64, 76.637 64 C 76.510 64, 74.772 65.688, 72.776 67.750 M 32.677 82.520 C 31.205 86.106, 30 89.256, 30 89.520 C 30 89.784, 39 90, 50 90 C 61 90, 70 89.784, 70 89.520 C 70 89.256, 68.795 86.106, 67.323 82.520 L 64.645 76 50 76 L 35.355 76 32.677 82.520" stroke="none" fill="#fffcfc" fill-rule="evenodd"/><path d="" stroke="none" fill="#fcfcfc" fill-rule="evenodd"/></svg>